<svg width="280" height="161" viewBox="0 0 280 161" fill="none" xmlns="http://www.w3.org/2000/svg">
<path d="M120.694 53L129.694 0.499996H140.269L131.269 53H120.694ZM96.6938 41.75V32.075H141.844V41.75H96.6938ZM101.044 53L110.044 0.499996H120.619L111.619 53H101.044ZM99.5438 20.75V11.075H144.619V20.75H99.5438ZM18.75 160.95C12.65 157.15 8 152.4 4.8 146.7C1.6 141 2.12342e-07 134.65 2.12342e-07 127.65C2.12342e-07 120.7 1.6 114.375 4.8 108.675C8.05 102.925 12.725 98.15 18.825 94.35L25.575 100.725C20.975 103.925 17.525 107.875 15.225 112.575C12.975 117.275 11.85 122.3 11.85 127.65C11.85 133 12.975 138.025 15.225 142.725C17.525 147.425 20.975 151.375 25.575 154.575L18.75 160.95ZM74.3221 147.75C70.1721 147.75 66.4721 146.85 63.2221 145.05C60.0221 143.25 57.4721 140.8 55.5721 137.7C53.7221 134.6 52.7971 131.05 52.7971 127.05C52.7971 123.05 53.7221 119.5 55.5721 116.4C57.4721 113.3 60.0221 110.85 63.2221 109.05C66.4721 107.25 70.1721 106.35 74.3221 106.35C78.4721 106.35 82.1471 107.25 85.3471 109.05C88.5971 110.85 91.1471 113.3 92.9971 116.4C94.8471 119.5 95.7721 123.05 95.7721 127.05C95.7721 131.05 94.8471 134.6 92.9971 137.7C91.1471 140.8 88.5971 143.25 85.3471 145.05C82.1471 146.85 78.4721 147.75 74.3221 147.75ZM74.3221 137.4C76.1221 137.4 77.7221 136.95 79.1221 136.05C80.5221 135.15 81.6221 133.925 82.4221 132.375C83.2221 130.825 83.5971 129.05 83.5471 127.05C83.5971 125.05 83.2221 123.275 82.4221 121.725C81.6221 120.125 80.5221 118.875 79.1221 117.975C77.7221 117.075 76.1221 116.625 74.3221 116.625C72.5221 116.625 70.8971 117.075 69.4471 117.975C68.0471 118.875 66.9471 120.125 66.1471 121.725C65.3471 123.275 64.9721 125.05 65.0221 127.05C64.9721 129.05 65.3471 130.825 66.1471 132.375C66.9471 133.925 68.0471 135.15 69.4471 136.05C70.8971 136.95 72.5221 137.4 74.3221 137.4ZM131.917 147.825C129.867 147.825 128.267 147.25 127.117 146.1C126.017 144.95 125.467 143.3 125.467 141.15C125.467 139.15 126.067 137.525 127.267 136.275C128.467 135.025 130.017 134.4 131.917 134.4C133.967 134.4 135.567 135 136.717 136.2C137.867 137.35 138.442 139 138.442 141.15C138.442 143.1 137.842 144.7 136.642 145.95C135.442 147.2 133.867 147.825 131.917 147.825ZM189.679 147.75C185.529 147.75 181.829 146.85 178.579 145.05C175.379 143.25 172.829 140.8 170.929 137.7C169.079 134.6 168.154 131.05 168.154 127.05C168.154 123.05 169.079 119.5 170.929 116.4C172.829 113.3 175.379 110.85 178.579 109.05C181.829 107.25 185.529 106.35 189.679 106.35C193.829 106.35 197.504 107.25 200.704 109.05C203.954 110.85 206.504 113.3 208.354 116.4C210.204 119.5 211.129 123.05 211.129 127.05C211.129 131.05 210.204 134.6 208.354 137.7C206.504 140.8 203.954 143.25 200.704 145.05C197.504 146.85 193.829 147.75 189.679 147.75ZM189.679 137.4C191.479 137.4 193.079 136.95 194.479 136.05C195.879 135.15 196.979 133.925 197.779 132.375C198.579 130.825 198.954 129.05 198.904 127.05C198.954 125.05 198.579 123.275 197.779 121.725C196.979 120.125 195.879 118.875 194.479 117.975C193.079 117.075 191.479 116.625 189.679 116.625C187.879 116.625 186.254 117.075 184.804 117.975C183.404 118.875 182.304 120.125 181.504 121.725C180.704 123.275 180.329 125.05 180.379 127.05C180.329 129.05 180.704 130.825 181.504 132.375C182.304 133.925 183.404 135.15 184.804 136.05C186.254 136.95 187.879 137.4 189.679 137.4ZM219.171 160.95L212.421 154.575C217.021 151.375 220.446 147.425 222.696 142.725C224.946 138.025 226.071 133 226.071 127.65C226.071 122.3 224.946 117.275 222.696 112.575C220.446 107.875 217.021 103.925 212.421 100.725L219.246 94.35C225.346 98.15 229.996 102.9 233.196 108.6C236.396 114.3 237.996 120.65 237.996 127.65C237.996 134.6 236.371 140.95 233.121 146.7C229.921 152.4 225.271 157.15 219.171 160.95ZM247.27 147L268.27 99.15L271.87 105.15H244.42V94.05H278.62L279.82 100.125L260.02 147H247.27Z" fill="#EC5B5B"/>
</svg>
